<svg width="104" height="78" viewBox="0 0 104 78" fill="none" xmlns="http://www.w3.org/2000/svg">
<path opacity="0.45" d="M51.9998 70.2363C69.9648 70.2363 84.5284 68.7629 84.5284 66.9453C84.5284 65.1277 69.9648 63.6543 51.9998 63.6543C34.0347 63.6543 19.4712 65.1277 19.4712 66.9453C19.4712 68.7629 34.0347 70.2363 51.9998 70.2363Z" fill="#98A0BB"/>
<path d="M27.383 57.3463H24.4736V52.6633H28.3242L29.6086 46.3841H24.4736V41.6804H30.5706L32.2606 33.3779H37.0524L35.3598 41.6804H40.0866L41.735 33.3779H46.6984L44.9798 41.6804H47.9308V46.3841H44.0256L42.7438 52.6633H47.9438V57.3463H41.7818L40.0892 65.6488H35.3208L36.9666 57.3463H32.219L30.529 65.6488H25.693L27.383 57.3463ZM34.4212 46.3841L33.1602 52.6633H37.9078L39.148 46.3841H34.4212Z" fill="#E6E6E6"/>
<path d="M50.4116 18.0694C50.4116 18.0694 58.2922 16.0617 62.0544 26.3486C65.8166 36.6355 75.9436 35.0133 75.9436 35.0133L75.8838 37.7429C75.8838 37.7429 68.3152 39.3521 61.5136 34.0638C54.712 28.7754 50.4116 18.0694 50.4116 18.0694Z" fill="#7564A0"/>
<path opacity="0.44" d="M50.4116 18.0694C50.4116 18.0694 58.2922 16.0617 62.0544 26.3486C65.8166 36.6355 75.9436 35.0133 75.9436 35.0133L75.8838 37.7429C75.8838 37.7429 68.3152 39.3521 61.5136 34.0638C54.712 28.7754 50.4116 18.0694 50.4116 18.0694Z" fill="white"/>
<path d="M57.6472 66.7375C57.6472 66.7375 58.1152 67.6146 58.9628 67.5654C59.8104 67.5163 60.151 68.3002 59.4256 68.621C58.7002 68.9418 56.6176 68.2562 56.6176 68.2562L56.4668 66.7168L57.6472 66.7375Z" fill="#7564A0"/>
<path d="M53.937 10.6233C53.937 10.6233 54.0956 12.3826 53.7992 13.5546C53.7404 13.783 53.5929 13.9788 53.3892 14.0991C53.1854 14.2194 52.942 14.2544 52.7124 14.1963C52.1222 14.0384 51.3708 13.6581 51.1706 12.7241L50.6376 11.1847C50.5629 10.8648 50.5898 10.5297 50.7146 10.2257C50.8394 9.92172 51.056 9.66376 51.3344 9.48746C52.3328 8.77079 53.8954 9.54697 53.937 10.6233Z" fill="#F4A28C"/>
<path d="M50.7336 11.4639L49.834 17.1791L53.0346 17.4482L52.4054 13.1818L50.7336 11.4639Z" fill="#F4A28C"/>
<path d="M53.4975 10.698C52.9495 10.721 52.4006 10.6802 51.8621 10.5764C52.0207 10.8165 52.1052 11.0975 52.1052 11.3849C52.1052 11.6722 52.0207 11.9533 51.8621 12.1934C51.7133 12.4286 51.487 12.6052 51.222 12.693C50.9569 12.7807 50.6695 12.7743 50.4087 12.6746L50.4321 10.4056C50.4255 10.081 50.5067 9.76056 50.6673 9.4779C50.8278 9.19524 51.0618 8.96072 51.3447 8.79891C51.5899 8.66015 51.8434 8.53659 52.1039 8.42893C52.7045 8.18832 53.7419 8.29957 54.2255 8.74199C54.3342 8.8349 54.4233 8.94839 54.4876 9.07587C54.5519 9.20334 54.59 9.34225 54.5999 9.48453C54.5998 9.67702 54.5654 9.86796 54.4985 10.0486C54.3087 10.5815 54.0435 10.6695 53.4975 10.698Z" fill="#24285B"/>
<path d="M52.0545 12.1387C52.0545 12.1387 52.0415 11.4608 51.5345 11.5126C51.0275 11.5643 51.0379 12.5475 51.7347 12.638L52.0545 12.1387Z" fill="#F4A28C"/>
<path d="M53.9784 11.7383L54.475 12.4161C54.5029 12.4548 54.5206 12.4999 54.5265 12.5471C54.5323 12.5944 54.5262 12.6423 54.5086 12.6866C54.491 12.7309 54.4625 12.7701 54.4258 12.8006C54.389 12.8311 54.3452 12.8519 54.2982 12.8611L53.6196 12.9879L53.9784 11.7383Z" fill="#F4A28C"/>
<path opacity="0.31" d="M52.5825 14.1083C52.1825 14.0109 51.8205 13.7975 51.5425 13.4951C51.5425 13.4951 51.5893 14.5533 52.7619 15.596L52.5825 14.1083Z" fill="#CE8172"/>
<path d="M49.3556 17.1816L53.3414 17.5257C53.3414 17.5257 61.2428 19.8362 60.923 27.228C60.6032 34.6197 59.883 43.6674 59.883 43.6674L49.2568 45.049C49.2568 45.049 31.5976 21.1169 49.3556 17.1816Z" fill="#7564A0"/>
<path opacity="0.08" d="M49.2572 22.0869C49.2572 22.0869 51.4334 23.7609 51.1708 28.2523C50.9082 32.7438 49.8344 37.8433 54.491 37.3258C59.1476 36.8084 60.471 35.3311 60.471 35.3311L59.8886 43.6569L49.2624 45.0385L48.3056 43.6569C48.3056 43.6569 41.3688 28.3403 49.2572 22.0869Z" fill="black"/>
<path d="M59.8883 43.6572L62.7483 46.0194C63.5194 46.6563 64.1233 47.4703 64.5078 48.3912C64.8923 49.3121 65.0459 50.3123 64.9553 51.3055C64.8647 52.2986 64.5326 53.2549 63.9878 54.0919C63.443 54.9289 62.7017 55.6214 61.8279 56.1097L56.3679 59.1782L54.5479 57.8587L58.6403 54.4797C58.9043 54.2618 59.1125 53.9846 59.2478 53.671C59.3831 53.3574 59.4416 53.0162 59.4185 52.6757C59.3954 52.3351 59.2914 52.0049 59.1149 51.7122C58.9385 51.4195 58.6947 51.1727 58.4037 50.9921L56.9451 50.0866C56.1366 49.5808 55.2272 49.2559 54.2801 49.1344C52.6993 48.9352 50.0655 48.1332 49.2803 45.0492L59.8883 43.6572Z" fill="#24285B"/>
<path d="M49.6026 23.5256C49.4154 19.9034 44.7536 18.4882 42.6086 21.4325C41.2878 23.2436 40.37 25.8308 41.0148 29.3754C42.6086 38.172 43.5368 45.0308 48.2506 44.5703C52.9644 44.1098 61.859 33.8022 61.859 33.8022L59.1368 32.0144C59.1368 32.0144 53.6274 37.965 50.1096 38.0271C47.6136 38.0763 49.9198 29.7117 49.6026 23.5256Z" fill="#7564A0"/>
<path d="M60.6835 31.3909L63.3896 32.2627L64.9681 27.4112L62.262 26.5393L60.6835 31.3909Z" fill="#FFD200"/>
<path opacity="0.44" d="M49.6026 23.5256C49.4154 19.9034 44.7536 18.4882 42.6086 21.4325C41.2878 23.2436 40.37 25.8308 41.0148 29.3754C42.6086 38.172 43.5368 45.0308 48.2506 44.5703C52.9644 44.1098 61.859 33.8022 61.859 33.8022L59.1368 32.0144C59.1368 32.0144 53.6274 37.965 50.1096 38.0271C47.6136 38.0763 49.9198 29.7117 49.6026 23.5256Z" fill="white"/>
<path d="M61.2146 33.3776C61.2146 33.3776 63.1698 31.8847 62.5484 30.7619C61.927 29.639 59.4414 32.2159 59.4414 32.2159L61.2146 33.3776Z" fill="#F4A28C"/>
<path d="M49.2622 45.0391L56.4668 66.7177L58.2738 66.6996C58.2738 66.6996 55.8194 52.2316 56.0846 46.1542L49.2622 45.0391Z" fill="#24285B"/>
<path d="M75.92 35.3437C75.92 35.3437 78.6838 33.8819 78.6032 35.4757C78.5226 37.0694 75.8784 37.1652 75.8784 37.1652L75.92 35.3437Z" fill="#F4A28C"/>
<path opacity="0.58" d="M77.8624 63.0383C77.8624 63.0383 80.7406 62.2621 81.3776 59.6076C81.3776 59.6076 76.9264 58.6943 76.7808 63.2685L77.8624 63.0383Z" fill="#7564A0"/>
<path opacity="0.73" d="M77.511 62.7507C77.511 62.7507 79.5338 59.6021 77.771 56.6396C77.771 56.6396 74.3754 58.7664 75.8626 62.7507H77.511Z" fill="#7564A0"/>
<path d="M76.9938 62.751C76.9938 62.751 75.9538 59.4108 72.7428 58.7666C72.7428 58.7666 72.1318 60.9295 74.802 62.751H76.9938Z" fill="#7564A0"/>
<path d="M79.0791 62.6865L78.4785 66.6502H74.8099L74.2847 62.6865H79.0791Z" fill="#24285B"/>
</svg>
