<svg width="30" height="30" viewBox="0 0 30 30" fill="none" xmlns="http://www.w3.org/2000/svg">
<path d="M8.43683 10.772C8.43757 11.2901 8.63095 11.7868 8.97454 12.1531C9.31814 12.5194 9.7839 12.7254 10.2697 12.726C10.4591 12.726 10.6456 12.694 10.8238 12.632V15.4989C10.8238 15.6316 10.8732 15.7587 10.9611 15.8525C11.049 15.9463 11.1682 15.9989 11.2925 15.9989H14.8308C14.9263 15.9991 15.0195 15.9681 15.0981 15.9101C15.1766 15.8521 15.2367 15.7699 15.2702 15.6746C15.3037 15.5792 15.3092 15.4752 15.2858 15.3764C15.2624 15.2776 15.2112 15.1889 15.1392 15.1219C15.0421 15.034 14.964 14.9246 14.9105 14.8013C14.8569 14.6781 14.8291 14.5438 14.8289 14.408C14.8364 14.1602 14.934 13.9252 15.101 13.7527C15.268 13.5803 15.4913 13.4839 15.7238 13.4839C15.9562 13.4839 16.1795 13.5803 16.3465 13.7527C16.5135 13.9252 16.6111 14.1602 16.6186 14.408C16.6186 14.6819 16.509 14.9359 16.3083 15.1219C16.2368 15.1892 16.1861 15.278 16.163 15.3767C16.1399 15.4754 16.1455 15.5792 16.1791 15.6744C16.2127 15.7696 16.2726 15.8516 16.351 15.9096C16.4293 15.9676 16.5224 15.9987 16.6177 15.9989H20.1559C20.2803 15.9989 20.3995 15.9463 20.4874 15.8525C20.5753 15.7587 20.6247 15.6316 20.6247 15.4989V11.725C20.6238 11.6236 20.5942 11.5249 20.5397 11.4418C20.4852 11.3588 20.4084 11.2953 20.3194 11.2597C20.2304 11.224 20.1334 11.218 20.0411 11.2423C19.9489 11.2667 19.8657 11.3202 19.8025 11.396C19.7202 11.4997 19.6176 11.5831 19.502 11.6402C19.3864 11.6974 19.2605 11.727 19.1331 11.727C18.64 11.727 18.2378 11.299 18.2378 10.773C18.2378 10.247 18.639 9.81797 19.1331 9.81797C19.2605 9.818 19.3864 9.84762 19.502 9.90478C19.6176 9.96194 19.7201 10.0453 19.8025 10.149C19.8657 10.2248 19.949 10.2783 20.0414 10.3026C20.1337 10.3269 20.2308 10.3208 20.3198 10.2851C20.4089 10.2494 20.4856 10.1857 20.5401 10.1025C20.5945 10.0193 20.624 9.92042 20.6247 9.81897V6.04498C20.6247 5.91237 20.5753 5.78519 20.4874 5.69143C20.3995 5.59766 20.2803 5.54498 20.1559 5.54498H17.469C17.5558 5.25222 17.5768 4.94176 17.5303 4.63873C17.4837 4.33571 17.3709 4.04863 17.2011 3.80072C17.0312 3.55282 16.809 3.35107 16.5524 3.21178C16.2958 3.0725 16.0121 2.9996 15.7242 2.99899C15.4363 2.99966 15.1526 3.07258 14.8961 3.21186C14.6395 3.35114 14.4172 3.55287 14.2473 3.80073C14.0773 4.04859 13.9645 4.33564 13.9178 4.63865C13.8711 4.94166 13.8919 5.25214 13.9786 5.54498H11.2916C11.1673 5.54498 11.048 5.59766 10.9601 5.69143C10.8722 5.78519 10.8228 5.91237 10.8228 6.04498V8.91097C10.6456 8.84897 10.4581 8.81697 10.2688 8.81697C9.78297 8.81776 9.3173 9.02402 8.97388 9.39051C8.63046 9.757 8.43732 10.2538 8.43683 10.772ZM10.2697 9.81697C10.3971 9.817 10.523 9.84662 10.6386 9.90378C10.7542 9.96094 10.8567 10.0443 10.9391 10.148C11.0023 10.2237 11.0855 10.2773 11.1777 10.3016C11.27 10.3259 11.367 10.3199 11.456 10.2843C11.545 10.2487 11.6218 10.1852 11.6763 10.1021C11.7308 10.019 11.7604 9.92034 11.7613 9.81897V6.54498H14.8308C14.9263 6.54509 15.0195 6.51409 15.0981 6.45612C15.1766 6.39815 15.2367 6.31598 15.2702 6.2206C15.3037 6.12522 15.3092 6.02119 15.2858 5.92243C15.2624 5.82367 15.2112 5.7349 15.1392 5.66798C15.0421 5.58005 14.964 5.47066 14.9105 5.34737C14.8569 5.22409 14.8291 5.08987 14.8289 4.95398C14.8292 4.70078 14.9236 4.45803 15.0914 4.27899C15.2593 4.09995 15.4869 3.99925 15.7242 3.99899C15.9615 3.99952 16.1888 4.10033 16.3565 4.27934C16.5241 4.45835 16.6184 4.70096 16.6186 4.95398C16.6186 5.22798 16.509 5.48198 16.3083 5.66798C16.2368 5.73514 16.1862 5.8239 16.1631 5.92248C16.1399 6.02106 16.1455 6.12481 16.179 6.21996C16.2124 6.3151 16.2722 6.39714 16.3504 6.45519C16.4286 6.51324 16.5215 6.54455 16.6168 6.54498H19.6872V8.91097C19.51 8.84897 19.3225 8.81697 19.1331 8.81697C18.6471 8.8175 18.1812 9.02364 17.8376 9.39016C17.494 9.75668 17.3007 10.2536 17.3002 10.772C17.301 11.2901 17.4943 11.7868 17.8379 12.1531C18.1815 12.5194 18.6473 12.7254 19.1331 12.726C19.3225 12.726 19.509 12.694 19.6872 12.632V14.9989H17.469C17.5556 14.7062 17.5765 14.3959 17.5299 14.093C17.4832 13.7901 17.3704 13.5032 17.2006 13.2554C17.0307 13.0076 16.8085 12.806 16.5521 12.6667C16.2956 12.5275 16.012 12.4546 15.7242 12.454C15.4365 12.4547 15.1529 12.5276 14.8964 12.6668C14.6399 12.806 14.4177 13.0077 14.2478 13.2554C14.0779 13.5031 13.9649 13.79 13.9182 14.0929C13.8714 14.3958 13.8921 14.7062 13.9786 14.9989H11.7604V11.725C11.7595 11.6236 11.7298 11.5249 11.6753 11.4418C11.6208 11.3588 11.544 11.2953 11.4551 11.2597C11.3661 11.224 11.2691 11.218 11.1768 11.2423C11.0845 11.2667 11.0013 11.3202 10.9382 11.396C10.8558 11.4997 10.7533 11.5831 10.6377 11.6402C10.5221 11.6974 10.3962 11.727 10.2688 11.727C10.0384 11.7156 9.821 11.6099 9.66179 11.432C9.50258 11.254 9.41381 11.0175 9.41393 10.7715C9.41405 10.5255 9.50306 10.289 9.66244 10.1113C9.82183 9.93349 10.0393 9.82808 10.2697 9.81697ZM21.9222 3.78599L23.6867 4.49199V5.34298C23.4514 5.57892 23.2639 5.86367 23.1355 6.17975C23.0072 6.49582 22.9408 6.83654 22.9404 7.18097V8.12097L22.497 9.85797C22.4633 10.0518 22.4664 10.2508 22.506 10.4433C22.5456 10.6359 22.621 10.818 22.7276 10.979C22.8334 11.1408 22.9686 11.2783 23.1251 11.3835C23.2816 11.4886 23.4563 11.5591 23.6389 11.591L25.8196 11.979C26.0165 12.0153 26.2185 12.0048 26.4112 11.9483C26.6038 11.8917 26.7825 11.7906 26.9343 11.652C27.1446 11.4633 27.296 11.2107 27.3684 10.928C27.5764 10.8473 27.7599 10.7076 27.899 10.524C28.1315 10.218 28.2206 9.82197 28.1174 9.34697L27.7049 8.29497V7.18097C27.7049 6.44698 27.4068 5.78998 26.939 5.32498V4.49199L28.7025 3.78699C29.083 3.63357 29.4108 3.36046 29.6425 3.00383C29.8743 2.6472 29.9989 2.2239 30 1.79V0.499998C30 0.367392 29.9506 0.240213 29.8627 0.146446C29.7748 0.0526791 29.6556 0 29.5312 0C29.4069 0 29.2877 0.0526791 29.1998 0.146446C29.1119 0.240213 29.0625 0.367392 29.0625 0.499998V1.79C29.0625 2.25999 28.7859 2.68599 28.3734 2.85099L26.699 3.52099C26.414 3.01999 25.9021 2.68099 25.3133 2.68099C24.7245 2.68099 24.2126 3.01999 23.9276 3.52099L22.2523 2.84999C21.8388 2.68599 21.5622 2.25999 21.5622 1.79V0.499998C21.5622 0.367392 21.5128 0.240213 21.4249 0.146446C21.337 0.0526791 21.2178 0 21.0935 0C20.9691 0 20.8499 0.0526791 20.762 0.146446C20.6741 0.240213 20.6247 0.367392 20.6247 0.499998V1.79C20.6247 2.67499 21.146 3.47699 21.9222 3.78599ZM26.7674 7.18097V7.92897C26.7627 7.93697 26.7543 7.93997 26.7496 7.94797L26.4421 8.52497H24.1864L23.877 8.04297V7.17998C23.8867 6.77795 24.0433 6.39588 24.3134 6.11524C24.5834 5.8346 24.9456 5.67761 25.3227 5.67774C25.6997 5.67787 26.0618 5.83512 26.3317 6.11594C26.6016 6.39676 26.7579 6.77894 26.7674 7.18097ZM27.1705 9.89497C27.1444 9.92966 27.1113 9.95758 27.0736 9.97663C27.036 9.99568 26.9947 10.0054 26.953 10.005C26.6943 10.005 26.4843 10.255 26.4843 10.531C26.4843 10.719 26.3868 10.836 26.3286 10.887C26.2808 10.9319 26.2241 10.9646 26.1627 10.9828C26.1014 11.001 26.0369 11.0041 25.9742 10.992L23.7936 10.604C23.6717 10.583 23.5657 10.511 23.4954 10.404C23.4251 10.297 23.3979 10.166 23.411 10.079L23.5948 9.36297C23.6388 9.41409 23.6922 9.4549 23.7518 9.48279C23.8114 9.51068 23.8757 9.52504 23.9407 9.52497H26.7158C26.7902 9.52507 26.8635 9.50625 26.9297 9.47008C26.9959 9.4339 27.0531 9.38142 27.0965 9.31697L27.2277 9.64397C27.2365 9.6877 27.236 9.73298 27.2261 9.77645C27.2162 9.81991 27.1972 9.86042 27.1705 9.89497ZM25.3124 3.68099C25.4949 3.68099 25.6699 3.75832 25.7989 3.89597C25.928 4.03362 26.0005 4.22032 26.0005 4.41499V4.75698C25.7839 4.68798 25.5589 4.63898 25.3217 4.63898C25.077 4.63898 24.8455 4.68999 24.6233 4.76299V4.41399C24.624 4.21948 24.6969 4.0332 24.826 3.89585C24.9552 3.7585 25.13 3.68125 25.3124 3.68099ZM1.2966 3.78599L3.06104 4.49199V5.34298C2.82577 5.57892 2.63821 5.86367 2.50988 6.17975C2.38155 6.49582 2.31515 6.83654 2.31476 7.18097V8.12097L1.87131 9.85797C1.83768 10.0518 1.84076 10.2508 1.88037 10.4433C1.91998 10.6359 1.99532 10.818 2.10194 10.979C2.20774 11.1408 2.34291 11.2783 2.49944 11.3835C2.65596 11.4886 2.83067 11.5591 3.01322 11.591L5.19391 11.979C5.39083 12.0154 5.59286 12.005 5.78557 11.9485C5.97827 11.8919 6.15688 11.7907 6.30864 11.652C6.51895 11.4633 6.67037 11.2107 6.74271 10.928C6.95077 10.8473 7.13425 10.7076 7.27335 10.524C7.50586 10.218 7.59493 9.82197 7.4918 9.34697L7.07928 8.29497V7.18097C7.07928 6.44698 6.78115 5.78998 6.31332 5.32498V4.49199L8.07681 3.78699C8.45734 3.63357 8.78518 3.36046 9.01689 3.00383C9.24861 2.6472 9.37327 2.2239 9.37436 1.79V0.499998C9.37436 0.367392 9.32497 0.240213 9.23706 0.146446C9.14915 0.0526791 9.02991 0 8.90559 0C8.78127 0 8.66203 0.0526791 8.57413 0.146446C8.48621 0.240213 8.43683 0.367392 8.43683 0.499998V1.79C8.43683 2.25999 8.16026 2.68599 7.74774 2.85099L6.07332 3.52099C5.78831 3.01999 5.27641 2.68099 4.68765 2.68099C4.09888 2.68099 3.58699 3.01999 3.30198 3.52099L1.62661 2.84999C1.21504 2.68599 0.937531 2.25999 0.937531 1.79V0.499998C0.937531 0.367392 0.888142 0.240213 0.800232 0.146446C0.712322 0.0526791 0.59309 0 0.468765 0C0.34444 0 0.225208 0.0526791 0.137299 0.146446C0.049387 0.240213 0 0.367392 0 0.499998V1.79C0.000547409 2.22377 0.124901 2.64709 0.356516 3.00364C0.588133 3.36019 0.916035 3.63307 1.2966 3.78599ZM6.14176 7.18097V7.92897C6.13707 7.93697 6.12863 7.93997 6.12394 7.94797L5.81643 8.52497H3.56074L3.25135 8.04297V7.17998C3.26107 6.77795 3.41767 6.39588 3.68773 6.11524C3.9578 5.8346 4.31997 5.67761 4.69701 5.67774C5.07405 5.67787 5.43613 5.83512 5.70602 6.11594C5.97592 6.39676 6.13228 6.77894 6.14176 7.18097ZM6.54489 9.89497C6.5188 9.92966 6.48567 9.95758 6.44799 9.97663C6.41032 9.99568 6.36908 10.0054 6.32739 10.005C6.06863 10.005 5.85862 10.255 5.85862 10.531C5.85862 10.719 5.76112 10.836 5.70299 10.887C5.65519 10.9319 5.59847 10.9646 5.53709 10.9828C5.47572 11.001 5.41127 11.0041 5.3486 10.992L3.16791 10.604C3.04603 10.583 2.94009 10.511 2.86978 10.404C2.79946 10.297 2.77228 10.166 2.7854 10.079L2.96916 9.36297C3.01313 9.41409 3.06659 9.4549 3.12615 9.48279C3.18571 9.51068 3.25006 9.52504 3.31511 9.52497H6.09019C6.16457 9.52507 6.2379 9.50625 6.3041 9.47008C6.3703 9.4339 6.42745 9.38142 6.47083 9.31697L6.60208 9.64397C6.61088 9.6877 6.61031 9.73298 6.60041 9.77645C6.59051 9.81991 6.57153 9.86042 6.54489 9.89497ZM4.68671 3.68099C4.86922 3.68099 5.04425 3.75832 5.1733 3.89597C5.30235 4.03362 5.37486 4.22032 5.37486 4.41499V4.75698C5.15829 4.68798 4.93328 4.63898 4.69608 4.63898C4.45139 4.63898 4.21982 4.68999 3.99763 4.76299V4.41399C3.99837 4.21948 4.07127 4.0332 4.20039 3.89585C4.32951 3.7585 4.50435 3.68125 4.68671 3.68099ZM10.7806 17.9999C10.6563 17.9999 10.5371 18.0526 10.4492 18.1464C10.3613 18.2402 10.3119 18.3673 10.3119 18.4999V19.7899C10.3119 20.6749 10.8332 21.4769 11.6094 21.7859L13.3739 22.4919V23.3429C13.1386 23.5789 12.951 23.8636 12.8227 24.1797C12.6944 24.4958 12.628 24.8365 12.6276 25.1809V26.1209L12.1841 27.8579C12.1505 28.0517 12.1536 28.2507 12.1932 28.4433C12.2328 28.6358 12.3081 28.8179 12.4148 28.9789C12.5206 29.1407 12.6557 29.2783 12.8123 29.3834C12.9688 29.4885 13.1435 29.5591 13.326 29.5909L15.5067 29.9789C15.7037 30.0151 15.9056 30.0046 16.0983 29.9481C16.291 29.8916 16.4696 29.7904 16.6215 29.6519C16.8318 29.4632 16.9832 29.2107 17.0555 28.9279C17.2636 28.8473 17.4471 28.7076 17.5862 28.5239C17.8187 28.2179 17.9077 27.8219 17.8046 27.3469L17.3921 26.2949V25.1809C17.3921 24.4469 17.094 23.7899 16.6261 23.3249V22.4919L18.3896 21.7869C18.7702 21.6335 19.098 21.3604 19.3297 21.0038C19.5614 20.6471 19.6861 20.2238 19.6872 19.7899V18.4999C19.6872 18.3673 19.6378 18.2402 19.5499 18.1464C19.462 18.0526 19.3427 17.9999 19.2184 17.9999C19.0941 17.9999 18.9749 18.0526 18.8869 18.1464C18.799 18.2402 18.7496 18.3673 18.7496 18.4999V19.7899C18.7496 20.2599 18.4731 20.6859 18.0606 20.8509L16.3861 21.5209C16.1011 21.0199 15.5892 20.6809 15.0005 20.6809C14.4117 20.6809 13.8998 21.0199 13.6148 21.5209L11.9394 20.8499C11.5279 20.6859 11.2504 20.2599 11.2504 19.7899V18.4999C11.2494 18.2239 11.0394 17.9999 10.7806 17.9999ZM16.4546 25.1809V25.9289C16.4499 25.9369 16.4415 25.9399 16.4368 25.9479L16.1293 26.5249H13.8736L13.5642 26.0429V25.1799C13.5739 24.7779 13.7305 24.3958 14.0006 24.1152C14.2706 23.8345 14.6328 23.6775 15.0098 23.6777C15.3869 23.6778 15.7489 23.8351 16.0188 24.1159C16.2887 24.3967 16.4451 24.7789 16.4546 25.1809ZM16.8577 27.8949C16.8316 27.9296 16.7985 27.9575 16.7608 27.9766C16.7231 27.9956 16.6819 28.0053 16.6402 28.0049C16.3814 28.0049 16.1714 28.2549 16.1714 28.5309C16.1714 28.7189 16.0739 28.8359 16.0158 28.8869C15.968 28.9318 15.9113 28.9646 15.8499 28.9828C15.7885 29.0009 15.7241 29.0041 15.6614 28.9919L13.4807 28.6039C13.3589 28.5829 13.2529 28.5109 13.1826 28.4039C13.1123 28.2969 13.0851 28.1659 13.0982 28.0789L13.282 27.3629C13.3259 27.414 13.3794 27.4548 13.439 27.4827C13.4985 27.5106 13.5629 27.525 13.6279 27.5249H16.403C16.4774 27.525 16.5507 27.5062 16.6169 27.47C16.6831 27.4338 16.7403 27.3814 16.7836 27.3169L16.9149 27.6439C16.9237 27.6876 16.9231 27.7329 16.9132 27.7764C16.9033 27.8198 16.8844 27.8604 16.8577 27.8949ZM14.9995 21.6809C15.182 21.6809 15.3571 21.7583 15.4861 21.8959C15.6152 22.0336 15.6877 22.2203 15.6877 22.4149V22.7569C15.4711 22.6879 15.2461 22.6389 15.0089 22.6389C14.7642 22.6389 14.5326 22.6899 14.3104 22.7629V22.4139C14.3112 22.2194 14.3841 22.0331 14.5132 21.8958C14.6423 21.7584 14.8172 21.6812 14.9995 21.6809Z" fill="black"/>
</svg>
