<svg width="30" height="30" viewBox="0 0 30 30" fill="none" xmlns="http://www.w3.org/2000/svg">
<path d="M0 15C0 15.4142 0.419769 15.75 0.9375 15.75H17.4244L12.4622 19.7197C12.2864 19.8604 12.1876 20.0511 12.1876 20.2499C12.1875 20.6641 12.6073 20.9999 13.125 21C13.3737 21.0002 13.6122 20.9212 13.7877 20.7803L20.3502 15.5303C20.3503 15.5302 20.3505 15.5302 20.3506 15.5301C20.7164 15.2372 20.7163 14.7625 20.3502 14.4698L13.7877 9.21982C13.4245 8.93912 12.8485 8.93912 12.4852 9.21982C12.1128 9.50757 12.1025 9.98236 12.4622 10.2803L17.4244 14.25H0.9375C0.419769 14.25 0 14.5858 0 15ZM25.3125 0H4.6875C2.09965 0.00192255 0.00240319 1.67972 0 3.75V9.75C0 10.1642 0.419769 10.5 0.9375 10.5C1.45523 10.5 1.875 10.1642 1.875 9.75V3.75C1.87672 2.5079 3.13488 1.50137 4.6875 1.5H25.3125C26.8651 1.50137 28.1233 2.5079 28.125 3.75V26.25C28.1233 27.4921 26.8651 28.4986 25.3125 28.5H4.6875C3.13488 28.4986 1.87672 27.4921 1.875 26.25V20.25C1.875 19.8358 1.45523 19.5 0.9375 19.5C0.419769 19.5 0 19.8358 0 20.25V26.25C0.00240319 28.3203 2.09965 29.9981 4.6875 30H25.3125C27.9004 29.9981 29.9976 28.3203 30 26.25V3.75C29.9976 1.67972 27.9004 0.00192255 25.3125 0Z" fill="black"/>
</svg>
