<svg width="30" height="30" viewBox="0 0 30 30" fill="none" xmlns="http://www.w3.org/2000/svg">
<path fill-rule="evenodd" clip-rule="evenodd" d="M4.50625 19.8429L0.085831 26.4569C-0.0384549 26.6425 -0.0268223 26.8759 0.114607 27.0517C0.256648 27.2275 0.501546 27.3118 0.73971 27.2672L4.2289 26.6082L5.33216 29.6243C5.40686 29.8278 5.6089 29.9736 5.84829 29.9965C6.08768 30.0199 6.32033 29.9165 6.44217 29.7315L10.434 23.7009C11.9487 24.2109 13.5907 24.4901 15.3063 24.4901C16.8559 24.4901 18.3461 24.262 19.7365 23.8419L23.5557 29.7277C23.6763 29.9138 23.9089 30.0194 24.1495 29.997C24.3902 29.9747 24.5934 29.8283 24.6681 29.6243L25.7714 26.6082L29.2606 27.2672C29.4938 27.3108 29.7344 27.2308 29.8777 27.0615C30.0204 26.8917 30.04 26.6642 29.9273 26.4776L25.9985 19.9627C27.9259 17.8554 29.0818 15.1691 29.0818 12.245C29.0818 5.48686 22.9091 0 15.3063 0C7.70339 0 1.53073 5.48686 1.53073 12.245C1.53073 15.1147 2.64379 17.7547 4.50625 19.8429ZM5.35298 20.7072L1.85277 25.9442L4.51359 25.4419C4.82033 25.3842 5.12645 25.5409 5.22319 25.806L6.07666 28.138L9.30074 23.2666C7.81666 22.6261 6.48135 21.7553 5.35298 20.7072ZM25.1297 20.8258C23.9218 21.9186 22.4855 22.8106 20.8893 23.4408L23.9285 28.1249L24.7771 25.806C24.8738 25.5409 25.1799 25.3842 25.4867 25.4419L28.2253 25.9589L25.1297 20.8258ZM15.3063 1.08845C22.2332 1.08845 27.8573 6.08768 27.8573 12.245C27.8573 18.4024 22.2332 23.4016 15.3063 23.4016C8.37931 23.4016 2.75522 18.4024 2.75522 12.245C2.75522 6.08768 8.37931 1.08845 15.3063 1.08845ZM15.3063 1.7807C8.80911 1.7807 3.534 6.46973 3.534 12.245C3.534 18.0203 8.80911 22.7094 15.3063 22.7094C21.8034 22.7094 27.0785 18.0203 27.0785 12.245C27.0785 6.46973 21.8034 1.7807 15.3063 1.7807ZM15.3063 2.86915C21.1281 2.86915 25.854 7.07001 25.854 12.245C25.854 17.42 21.1281 21.6209 15.3063 21.6209C9.48442 21.6209 4.75849 17.42 4.75849 12.245C4.75849 7.07001 9.48442 2.86915 15.3063 2.86915ZM9.67666 11.402L13.8491 15.6676C14.0677 15.8913 14.4467 15.9185 14.7032 15.7291L22.9306 9.63928C23.1901 9.44717 23.225 9.10377 23.0089 8.87302C22.7928 8.64227 22.4065 8.6107 22.1469 8.80281L14.3799 14.5514L10.6012 10.6875C10.3789 10.4611 9.99197 10.4371 9.73727 10.6341C9.48197 10.8311 9.45503 11.1751 9.67666 11.402Z" fill="black"/>
</svg>
