<svg width="42" height="38" viewBox="0 0 42 38" fill="none" xmlns="http://www.w3.org/2000/svg">
<path d="M41.5 26.4758V26.4766C41.5006 26.8222 41.4387 27.1637 41.3189 27.4811C41.1991 27.7984 41.0242 28.0842 40.8062 28.3229C40.5883 28.5615 40.3319 28.7482 40.0531 28.8746C39.7744 29.0009 39.4774 29.0652 39.1787 29.0652H9.81961H9.51764L9.37708 29.3325L5.88333 35.9752V29.5652V29.0652H5.38333H2.82625C2.22438 29.0652 1.6371 28.8043 1.1967 28.3229C0.754944 27.84 0.5 27.1762 0.5 26.4758V3.08444C0.501223 2.38497 0.756637 1.72258 1.19817 1.24077C1.63843 0.760359 2.22507 0.499999 2.82625 0.5H39.1787C39.7793 0.5 40.3653 0.760382 40.8047 1.24078C41.2456 1.72266 41.5 2.38504 41.5 3.08403V26.4758Z" fill="#FFE880" fill-opacity="0.2" stroke="#FEC864"/>
<path d="M17.2954 11.8359H10V22.5358H17.2954V11.8359Z" fill="#A156A0"/>
<path d="M17.2954 13.001C17.2954 13.001 21.3061 13.2265 21.9841 9.37916L22.3881 7.10316C22.4312 6.86753 22.5382 6.6475 22.698 6.46599C22.8577 6.28448 23.0644 6.14813 23.2964 6.07114C23.5284 5.99415 23.7773 5.97933 24.0172 6.02824C24.2571 6.07714 24.4792 6.18797 24.6603 6.34919C24.9429 6.61906 25.1676 6.94128 25.3212 7.297C25.4748 7.65271 25.5542 8.03478 25.5548 8.42084C25.6918 11.2394 24.2563 12.1977 27.2066 13.001C30.1569 13.8043 31.6645 14.5512 31.3616 16.6934C31.0586 18.8355 28.4113 18.5395 28.4113 19.8008C28.4113 21.0621 27.6899 23.1197 23.1238 22.3798C18.5578 21.6399 17.2954 21.7175 17.2954 21.7175V13.001Z" fill="#FEC864"/>
<path d="M13.4044 16.6994C14.2102 16.6994 14.8635 16.0461 14.8635 15.2403C14.8635 14.4345 14.2102 13.7812 13.4044 13.7812C12.5986 13.7812 11.9453 14.4345 11.9453 15.2403C11.9453 16.0461 12.5986 16.6994 13.4044 16.6994Z" fill="white"/>
</svg>
