<svg width="42" height="38" viewBox="0 0 42 38" fill="none" xmlns="http://www.w3.org/2000/svg">
<path d="M41.5 26.4758V26.4766C41.5006 26.8222 41.4387 27.1637 41.3189 27.4811C41.1991 27.7984 41.0242 28.0842 40.8062 28.3229L41.1754 28.66L40.8062 28.3229C40.5883 28.5615 40.3319 28.7482 40.0531 28.8746C39.7744 29.0009 39.4774 29.0652 39.1787 29.0652H9.81961H9.51764L9.37708 29.3325L5.88333 35.9752V29.5652V29.0652H5.38333H2.82625C2.22438 29.0652 1.6371 28.8043 1.1967 28.3229C0.754944 27.84 0.5 27.1762 0.5 26.4758V3.08444C0.501223 2.38497 0.756637 1.72258 1.19817 1.24077C1.63843 0.760359 2.22507 0.499999 2.82625 0.5H39.1787C39.7793 0.5 40.3653 0.760382 40.8047 1.24078C41.2456 1.72266 41.5 2.38504 41.5 3.08403V26.4758Z" fill="#FFE880" fill-opacity="0.2" stroke="#FEC864"/>
<path d="M24.1045 18.7002L31.3999 18.7002L31.3999 8.00031L24.1045 8.00031L24.1045 18.7002Z" fill="#A156A0"/>
<path d="M24.1045 17.5351C24.1045 17.5351 20.0938 17.3096 19.4158 21.157L19.0118 23.433C18.9687 23.6686 18.8617 23.8886 18.7019 24.0701C18.5422 24.2517 18.3355 24.388 18.1035 24.465C17.8715 24.542 17.6226 24.5568 17.3827 24.5079C17.1428 24.459 16.9207 24.3482 16.7396 24.1869C16.457 23.9171 16.2323 23.5949 16.0787 23.2391C15.9252 22.8834 15.8457 22.5013 15.8451 22.1153C15.7081 19.2967 17.1436 18.3384 14.1933 17.5351C11.243 16.7318 9.73538 15.9849 10.0383 13.8428C10.3413 11.7007 12.9886 11.9966 12.9886 10.7353C12.9886 9.47399 13.71 7.41643 18.2761 8.15631C22.8421 8.89618 24.1045 8.81867 24.1045 8.81867L24.1045 17.5351Z" fill="#FEC864"/>
<path d="M27.9955 13.8367C27.1897 13.8367 26.5364 14.49 26.5364 15.2958C26.5364 16.1016 27.1897 16.7549 27.9955 16.7549C28.8013 16.7549 29.4546 16.1016 29.4546 15.2958C29.4546 14.49 28.8013 13.8367 27.9955 13.8367Z" fill="white"/>
</svg>
