<svg width="30" height="30" viewBox="0 0 30 30" fill="none" xmlns="http://www.w3.org/2000/svg">
<path fill-rule="evenodd" clip-rule="evenodd" d="M30 26.3409C30 27.3114 29.6564 28.2421 29.0449 28.9283C28.4334 29.6145 27.604 30 26.7391 30H3.26087C2.83265 30 2.40862 29.9054 2.01299 29.7215C1.61736 29.5376 1.25789 29.2681 0.955087 28.9283C0.343555 28.2421 0 27.3114 0 26.3409V5.11815C0 4.34179 0.274844 3.59722 0.764069 3.04825C1.25329 2.49928 1.91683 2.19087 2.6087 2.19087H15.7637L21.0457 0.0437141C21.2063 -0.0219009 21.3835 -0.0133726 21.5385 0.067429C21.6935 0.14823 21.8137 0.294711 21.8726 0.474756L22.4289 2.19087H24.7826C25.4745 2.19087 26.138 2.49928 26.6272 3.04825C27.1165 3.59722 27.3913 4.34179 27.3913 5.11815V6.58179C28.0832 6.58179 28.7467 6.8902 29.2359 7.43917C29.7252 7.98814 30 8.7327 30 9.50906V26.3409ZM2.6087 3.65451C2.26276 3.65451 1.931 3.80871 1.68638 4.0832C1.44177 4.35769 1.30435 4.72997 1.30435 5.11815C1.30435 5.50633 1.44177 5.87861 1.68638 6.1531C1.931 6.42758 2.26276 6.58179 2.6087 6.58179H4.9787C4.98717 6.57813 4.99239 6.57008 5.00087 6.56642L12.163 3.65451H2.6087ZM21.5726 3.78697L20.88 1.64713H20.8793L19.5417 2.19087H19.5437L15.9476 3.65451H15.9411L8.74174 6.58179H22.4778L21.5726 3.78697ZM26.087 5.11815C26.087 4.72997 25.9495 4.35769 25.7049 4.0832C25.4603 3.80871 25.1285 3.65451 24.7826 3.65451H22.9024L23.8507 6.58179H26.087V5.11815ZM27.3913 8.04543H2.6087C2.1313 8.04543 1.68913 7.89101 1.30435 7.63927V26.3409C1.30435 26.9232 1.51048 27.4816 1.8774 27.8933C2.24432 28.3051 2.74197 28.5364 3.26087 28.5364H26.7391C27.258 28.5364 27.7557 28.3051 28.1226 27.8933C28.4895 27.4816 28.6957 26.9232 28.6957 26.3409V21.2182H26.087C25.3951 21.2182 24.7316 20.9098 24.2423 20.3608C23.7531 19.8118 23.4783 19.0673 23.4783 18.2909C23.4783 17.5145 23.7531 16.77 24.2423 16.221C24.7316 15.672 25.3951 15.3636 26.087 15.3636H28.6957V9.50906C28.6957 9.12088 28.5582 8.7486 28.3136 8.47412C28.069 8.19963 27.7372 8.04543 27.3913 8.04543ZM28.6957 19.7545V16.8273H26.087C25.741 16.8273 25.4093 16.9815 25.1646 17.2559C24.92 17.5304 24.7826 17.9027 24.7826 18.2909C24.7826 18.6791 24.92 19.0514 25.1646 19.3258C25.4093 19.6003 25.741 19.7545 26.087 19.7545H28.6957ZM26.087 17.5591H27.3913V19.0227H26.087V17.5591Z" fill="black"/>
</svg>
